<svg xmlns="http://www.w3.org/2000/svg" viewBox="0 0 200 200" width="200" height="200">
  <g fill="none" stroke="#1A1A1A" stroke-width="11" stroke-linecap="round" stroke-linejoin="round">
    <circle cx="62" cy="100" r="50"/>
    <ellipse cx="62" cy="100" rx="22" ry="50"/>
    <line x1="12" y1="100" x2="112" y2="100"/>
  </g>
  <g transform="translate(108 72) scale(3.9)" fill="none" stroke="#FF6B35" stroke-width="3" stroke-linecap="round" stroke-linejoin="round">
    <path d="M22 16.92v3a2 2 0 0 1-2.18 2 19.79 19.79 0 0 1-8.63-3.07 19.5 19.5 0 0 1-6-6 19.79 19.79 0 0 1-3.07-8.67A2 2 0 0 1 4.11 2h3a2 2 0 0 1 2 1.72 12.84 12.84 0 0 0 .7 2.81 2 2 0 0 1-.45 2.11L8.09 9.91a16 16 0 0 0 6 6l1.27-1.27a2 2 0 0 1 2.11-.45 12.84 12.84 0 0 0 2.81.7A2 2 0 0 1 22 16.92z"/>
  </g>
</svg>
