<svg xmlns="http://www.w3.org/2000/svg" viewBox="0 0 200 200" width="200" height="200">
  <g fill="none" stroke="#1A1A1A" stroke-width="12" stroke-linecap="round" stroke-linejoin="round">
    <circle cx="52" cy="46" r="18"/>
    <line x1="52" y1="64" x2="52" y2="138"/>
    <line x1="52" y1="138" x2="34" y2="185"/>
    <line x1="52" y1="138" x2="70" y2="185"/>
    <line x1="52" y1="86" x2="95" y2="78"/>
    <line x1="52" y1="86" x2="22" y2="118"/>
    <circle cx="148" cy="46" r="18"/>
    <line x1="148" y1="64" x2="148" y2="138"/>
    <line x1="148" y1="138" x2="130" y2="185"/>
    <line x1="148" y1="138" x2="166" y2="185"/>
    <line x1="148" y1="86" x2="148" y2="128"/>
    <line x1="148" y1="86" x2="170" y2="115"/>
  </g>
  <g fill="none" stroke="#FF6B35" stroke-width="10" stroke-linecap="round" stroke-linejoin="round">
    <rect x="130" y="128" width="36" height="28" rx="3"/>
    <path d="M141 128 L141 120 L155 120 L155 128"/>
  </g>
</svg>
